<svg id="Layer_1" data-name="Layer 1" xmlns="http://www.w3.org/2000/svg" viewBox="0 0 30 24"><defs><style>.cls-1{fill:#1da1f2;}</style></defs><title>icon-social-tw</title><path id="Path_20" data-name="Path 20" class="cls-1" d="M26.92,6c0,.26,0,.53,0,.79A17.24,17.24,0,0,1,9.44,24,17.58,17.58,0,0,1,0,21.28a14.68,14.68,0,0,0,1.48.08,12.52,12.52,0,0,0,7.64-2.59,6.16,6.16,0,0,1-5.75-4.2,7.46,7.46,0,0,0,1.16.09,6.78,6.78,0,0,0,1.62-.2,6.08,6.08,0,0,1-4.93-6V8.44A6.26,6.26,0,0,0,4,9.21a6,6,0,0,1-1.91-8.1A17.59,17.59,0,0,0,14.77,7.44a6.41,6.41,0,0,1-.15-1.38A6.11,6.11,0,0,1,20.78,0a6.18,6.18,0,0,1,4.48,1.91A12,12,0,0,0,29.16.45a6.07,6.07,0,0,1-2.7,3.34A12.78,12.78,0,0,0,30,2.85,12.9,12.9,0,0,1,26.92,6Z"/></svg>