<?xml version="1.0" encoding="utf-8"?>
<!-- Generator: Adobe Illustrator 25.0.0, SVG Export Plug-In . SVG Version: 6.00 Build 0)  -->
<svg version="1.1" id="Layer_1" xmlns="http://www.w3.org/2000/svg" xmlns:xlink="http://www.w3.org/1999/xlink" x="0px" y="0px"
	 viewBox="0 0 30 30" style="enable-background:new 0 0 30 30;" xml:space="preserve">
<style type="text/css">
	.st0{fill:url(#SVGID_1_);}
	.st1{fill:url(#SVGID_2_);}
	.st2{fill:#FFFFFF;}
</style>
<g>
	
		<radialGradient id="SVGID_1_" cx="-334.0133" cy="-469.5048" r="14.9972" gradientTransform="matrix(0 -1.9825 -1.8439 0 -857.7512 -629.8781)" gradientUnits="userSpaceOnUse">
		<stop  offset="0" style="stop-color:#FFDD55"/>
		<stop  offset="0.1" style="stop-color:#FFDD55"/>
		<stop  offset="0.5" style="stop-color:#FF543E"/>
		<stop  offset="1" style="stop-color:#C837AB"/>
	</radialGradient>
	<path class="st0" d="M15,0C8.7,0,6.9,0,6.6,0c-1.3,0.1-2.1,0.3-3,0.7C2.9,1.1,2.4,1.5,1.9,2c-1,1-1.5,2.2-1.7,3.6
		C0,6.4,0,6.5,0,10.1c0,1.2,0,2.8,0,4.9c0,6.3,0,8.1,0,8.4c0.1,1.3,0.3,2,0.7,2.9c0.8,1.6,2.3,2.9,4.1,3.3C5.5,29.8,6.1,29.9,7,30
		c0.4,0,4.2,0,7.9,0s7.6,0,7.9,0c1,0,1.6-0.1,2.3-0.3c1.8-0.5,3.3-1.7,4.1-3.4c0.4-0.8,0.6-1.7,0.7-2.8c0-0.3,0-4.4,0-8.5
		c0-4.1,0-8.2,0-8.5c-0.1-1.2-0.3-2-0.7-2.9c-0.3-0.7-0.7-1.2-1.3-1.8c-1-0.9-2.2-1.5-3.7-1.7C23.6,0,23.5,0,19.9,0H15z"/>
	
		<radialGradient id="SVGID_2_" cx="138.961" cy="-61.9525" r="14.9972" gradientTransform="matrix(0.1739 0.869 3.5818 -0.7174 192.7056 -163.0334)" gradientUnits="userSpaceOnUse">
		<stop  offset="0" style="stop-color:#3771C8"/>
		<stop  offset="0.128" style="stop-color:#3771C8"/>
		<stop  offset="1" style="stop-color:#6600FF;stop-opacity:0"/>
	</radialGradient>
	<path class="st1" d="M15,0C8.7,0,6.9,0,6.6,0c-1.3,0.1-2.1,0.3-3,0.7C2.9,1.1,2.4,1.5,1.9,2c-1,1-1.5,2.2-1.7,3.6
		C0,6.4,0,6.5,0,10.1c0,1.2,0,2.8,0,4.9c0,6.3,0,8.1,0,8.4c0.1,1.3,0.3,2,0.7,2.9c0.8,1.6,2.3,2.9,4.1,3.3C5.5,29.8,6.1,29.9,7,30
		c0.4,0,4.2,0,7.9,0s7.6,0,7.9,0c1,0,1.6-0.1,2.3-0.3c1.8-0.5,3.3-1.7,4.1-3.4c0.4-0.8,0.6-1.7,0.7-2.8c0-0.3,0-4.4,0-8.5
		c0-4.1,0-8.2,0-8.5c-0.1-1.2-0.3-2-0.7-2.9c-0.3-0.7-0.7-1.2-1.3-1.8c-1-0.9-2.2-1.5-3.7-1.7C23.6,0,23.5,0,19.9,0H15z"/>
	<path class="st2" d="M15,3.9c-3,0-3.4,0-4.6,0.1C9.3,4,8.4,4.2,7.7,4.5C7,4.8,6.4,5.2,5.8,5.8c-0.6,0.6-1,1.2-1.3,2
		C4.2,8.4,4,9.3,4,10.4C3.9,11.6,3.9,12,3.9,15s0,3.4,0.1,4.6c0.1,1.2,0.2,2,0.5,2.7c0.3,0.7,0.7,1.3,1.3,2c0.6,0.6,1.2,1,2,1.3
		c0.7,0.3,1.5,0.5,2.7,0.5c1.2,0.1,1.6,0.1,4.6,0.1c3,0,3.4,0,4.6-0.1c1.2-0.1,2-0.2,2.7-0.5c0.7-0.3,1.3-0.7,2-1.3
		c0.6-0.6,1-1.2,1.3-2c0.3-0.7,0.5-1.5,0.5-2.7c0.1-1.2,0.1-1.6,0.1-4.6s0-3.4-0.1-4.6c-0.1-1.2-0.2-2-0.5-2.7
		c-0.3-0.7-0.7-1.3-1.3-2c-0.6-0.6-1.2-1-2-1.3C21.5,4.2,20.7,4,19.6,4C18.4,3.9,18,3.9,15,3.9L15,3.9z M14,5.9c0.3,0,0.6,0,1,0
		c3,0,3.3,0,4.5,0.1c1.1,0,1.7,0.2,2.1,0.4c0.5,0.2,0.9,0.4,1.3,0.8c0.4,0.4,0.6,0.8,0.8,1.3c0.2,0.4,0.3,1,0.4,2.1
		c0.1,1.2,0.1,1.5,0.1,4.5s0,3.3-0.1,4.5c0,1.1-0.2,1.7-0.4,2.1c-0.2,0.5-0.4,0.9-0.8,1.3c-0.4,0.4-0.8,0.6-1.3,0.8
		c-0.4,0.2-1,0.3-2.1,0.4c-1.2,0.1-1.5,0.1-4.5,0.1c-3,0-3.3,0-4.5-0.1c-1.1,0-1.7-0.2-2.1-0.4c-0.5-0.2-0.9-0.4-1.3-0.8
		S6.6,22,6.4,21.5c-0.2-0.4-0.3-1-0.4-2.1C5.9,18.3,5.9,18,5.9,15s0-3.3,0.1-4.5c0-1.1,0.2-1.7,0.4-2.1c0.2-0.5,0.4-0.9,0.8-1.3
		c0.4-0.4,0.8-0.6,1.3-0.8C8.9,6.2,9.4,6,10.5,6C11.5,5.9,11.9,5.9,14,5.9L14,5.9z M20.9,7.8c-0.7,0-1.3,0.6-1.3,1.3
		c0,0.7,0.6,1.3,1.3,1.3c0.7,0,1.3-0.6,1.3-1.3S21.6,7.8,20.9,7.8L20.9,7.8z M15,9.3c-3.1,0-5.7,2.5-5.7,5.7s2.5,5.7,5.7,5.7
		c3.1,0,5.7-2.5,5.7-5.7S18.1,9.3,15,9.3L15,9.3z M15,11.3c2,0,3.7,1.7,3.7,3.7c0,2-1.7,3.7-3.7,3.7c-2,0-3.7-1.7-3.7-3.7
		C11.3,13,13,11.3,15,11.3z"/>
</g>
</svg>
