<svg id="Layer_1" data-name="Layer 1" xmlns="http://www.w3.org/2000/svg" viewBox="0 0 30 30"><path id="Path_21" data-name="Path 21" d="M30,15A15,15,0,0,1,15,30a15.22,15.22,0,0,1-4.44-.67,16.63,16.63,0,0,0,1.86-3.93c.19-.7.94-3.57.94-3.57a4,4,0,0,0,3.43,1.72c4.52,0,7.78-4.16,7.78-9.33,0-5-4-8.66-9.25-8.66-6.47,0-9.91,4.34-9.91,9.08,0,2.2,1.18,4.94,3,5.81.29.13.44.07.5-.2s.31-1.23.42-1.7a.43.43,0,0,0-.1-.43A5.94,5.94,0,0,1,8.16,14.7a6.5,6.5,0,0,1,6.47-6.52h.31a5.92,5.92,0,0,1,6.25,5.56,4.87,4.87,0,0,1,0,.54c0,4.06-2.05,6.88-4.72,6.88A2.18,2.18,0,0,1,14.2,19.1a2.32,2.32,0,0,1,.06-.64,29.71,29.71,0,0,0,1.24-5,1.87,1.87,0,0,0-1.64-2.1,1,1,0,0,0-.25,0c-1.5,0-2.72,1.55-2.72,3.64a5.31,5.31,0,0,0,.45,2.22s-1.48,6.28-1.75,7.45A14.83,14.83,0,0,0,9.53,29,15,15,0,1,1,30,15Z" fill="#e60023"/></svg>