<svg id="Layer_1" data-name="Layer 1" xmlns="http://www.w3.org/2000/svg" viewBox="0 0 24 24"><defs><style>.cls-1{fill:#3c5a99;}</style></defs><title>icon-social-fb</title><path id="Path_23" data-name="Path 23" class="cls-1" d="M24,2.57V21.43A2.57,2.57,0,0,1,21.43,24H16.86V14.51h3.25l.46-3.62H16.86V8.57c0-1.05.29-1.76,1.79-1.76h1.92V3.57a26.12,26.12,0,0,0-2.8-.14c-2.76,0-4.66,1.69-4.66,4.79v2.67H9.86v3.62h3.26V24H2.57A2.57,2.57,0,0,1,0,21.43V2.57A2.57,2.57,0,0,1,2.57,0H21.43A2.57,2.57,0,0,1,24,2.57Z"/></svg>